<?xml version="1.0" encoding="UTF-8" standalone="no"?>
<!-- Created with Inkscape (http://www.inkscape.org/) -->

<svg
   width="250"
   height="250"
   viewBox="0 0 66.145832 66.145833"
   version="1.1"
   id="svg5"
   inkscape:version="1.2.2 (732a01da63, 2022-12-09)"
   sodipodi:docname="logo.svg"
   xml:space="preserve"
   xmlns:inkscape="http://www.inkscape.org/namespaces/inkscape"
   xmlns:sodipodi="http://sodipodi.sourceforge.net/DTD/sodipodi-0.dtd"
   xmlns="http://www.w3.org/2000/svg"
   xmlns:svg="http://www.w3.org/2000/svg"><sodipodi:namedview
     id="namedview7"
     pagecolor="#ffffff"
     bordercolor="#000000"
     borderopacity="0.25"
     inkscape:showpageshadow="2"
     inkscape:pageopacity="0.0"
     inkscape:pagecheckerboard="0"
     inkscape:deskcolor="#d1d1d1"
     inkscape:document-units="px"
     showgrid="false"
     inkscape:zoom="4.1776837"
     inkscape:cx="-72.408545"
     inkscape:cy="-213.51545"
     inkscape:window-width="1920"
     inkscape:window-height="1009"
     inkscape:window-x="1432"
     inkscape:window-y="-8"
     inkscape:window-maximized="1"
     inkscape:current-layer="layer1"
     showguides="true" /><defs
     id="defs2" /><g
     inkscape:label="Layer 1"
     inkscape:groupmode="layer"
     id="layer1"><rect
       style="fill:none;stroke:#008080;stroke-width:0.364119;stroke-linecap:round;stroke-linejoin:round;stroke-dasharray:none"
       id="rect234"
       width="48.85796"
       height="14.314362"
       x="-28.658266"
       y="-39.308781"
       ry="0"
       inkscape:export-filename="logo.png"
       inkscape:export-xdpi="96"
       inkscape:export-ydpi="96" /><rect
       style="fill:#008080;fill-opacity:1;stroke:none;stroke-width:0.152663"
       id="rect954"
       width="25.135416"
       height="11.452428"
       x="-27.224482"
       y="-37.877819"
       ry="0" /><text
       xml:space="preserve"
       style="font-size:9.59835px;font-family:Arial;-inkscape-font-specification:Arial;text-align:center;text-anchor:middle;fill:#ffffff;fill-opacity:1;stroke:none;stroke-width:0.712355;stroke-linecap:round;stroke-linejoin:round;stroke-dasharray:none"
       x="-14.806346"
       y="-28.715397"
       id="text1300"><tspan
         sodipodi:role="line"
         id="tspan1298"
         style="font-style:normal;font-variant:normal;font-weight:normal;font-stretch:normal;font-family:'Product Sans';-inkscape-font-specification:'Product Sans';fill:#ffffff;stroke-width:0.712354"
         x="-14.806346"
         y="-28.715397">Swift</tspan></text><text
       xml:space="preserve"
       style="font-size:9.59835px;font-family:Arial;-inkscape-font-specification:Arial;text-align:center;text-anchor:middle;fill:#008080;fill-opacity:1;stroke:none;stroke-width:0.712355;stroke-linecap:round;stroke-linejoin:round;stroke-dasharray:none"
       x="9.2587404"
       y="-28.638609"
       id="text1516"><tspan
         sodipodi:role="line"
         id="tspan1514"
         style="font-style:normal;font-variant:normal;font-weight:normal;font-stretch:normal;font-family:'Product Sans Black';-inkscape-font-specification:'Product Sans Black, ';fill:#008080;fill-opacity:1;stroke-width:0.712354"
         x="9.2587404"
         y="-28.638609">Link</tspan></text><circle
       style="fill:#008080;stroke:none;stroke-width:0.172838;stroke-linecap:round;stroke-linejoin:round"
       id="path346"
       cx="-19.731754"
       cy="-61.657898"
       r="9.4645472"
       inkscape:export-filename="logo-rounded.png"
       inkscape:export-xdpi="96"
       inkscape:export-ydpi="96" /><g
       style="fill:#ffffff;fill-opacity:1"
       id="g734"
       transform="matrix(0.02294136,0.01234261,-0.01234261,0.02294136,-21.17307,-63.040422)"><g
         id="g1098"><g
           id="g1085"
           transform="matrix(37.678294,-20.271178,20.271178,37.678294,2049.2791,1872.2743)"><text
             xml:space="preserve"
             style="font-size:9.59835px;font-family:Arial;-inkscape-font-specification:Arial;text-align:center;text-anchor:middle;fill:#ffffff;fill-opacity:1;stroke:none;stroke-width:0.712355;stroke-linecap:round;stroke-linejoin:round;stroke-dasharray:none"
             x="-22.786814"
             y="-58.213772"
             id="text402"><tspan
               sodipodi:role="line"
               id="tspan400"
               style="font-style:normal;font-variant:normal;font-weight:normal;font-stretch:normal;font-family:'Product Sans';-inkscape-font-specification:'Product Sans';fill:#ffffff;stroke-width:0.712354"
               x="-22.786814"
               y="-58.213772">S</tspan></text><text
             xml:space="preserve"
             style="font-size:9.59835px;font-family:Arial;-inkscape-font-specification:Arial;text-align:center;text-anchor:middle;fill:#ffffff;fill-opacity:1;stroke:none;stroke-width:0.712355;stroke-linecap:round;stroke-linejoin:round;stroke-dasharray:none"
             x="-17.256754"
             y="-58.213772"
             id="text525"><tspan
               sodipodi:role="line"
               id="tspan523"
               style="font-style:normal;font-variant:normal;font-weight:normal;font-stretch:normal;font-family:'Product Sans';-inkscape-font-specification:'Product Sans';fill:#ffffff;stroke-width:0.712354"
               x="-17.256754"
               y="-58.213772">L</tspan></text></g><path
           id="XMLID_5_"
           d="M 298.423,128.606 235.94,66.124 c -0.004,-0.003 -0.007,-0.006 -0.011,-0.009 -0.355,-0.354 -0.725,-0.689 -1.111,-1.005 -0.214,-0.175 -0.439,-0.327 -0.66,-0.488 -0.169,-0.123 -0.332,-0.256 -0.507,-0.372 -0.29,-0.194 -0.591,-0.365 -0.891,-0.536 -0.12,-0.068 -0.235,-0.146 -0.356,-0.21 -0.286,-0.153 -0.58,-0.284 -0.874,-0.418 -0.151,-0.069 -0.298,-0.146 -0.452,-0.21 -0.253,-0.105 -0.513,-0.19 -0.77,-0.281 -0.207,-0.073 -0.41,-0.153 -0.621,-0.217 -0.206,-0.063 -0.416,-0.108 -0.625,-0.161 -0.268,-0.069 -0.534,-0.143 -0.807,-0.197 -0.16,-0.032 -0.321,-0.049 -0.481,-0.075 -0.322,-0.053 -0.644,-0.108 -0.971,-0.14 -0.13,-0.013 -0.261,-0.012 -0.391,-0.022 -0.352,-0.025 -0.704,-0.051 -1.061,-0.051 -0.193,0 -0.386,0.019 -0.579,0.026 -0.29,0.011 -0.577,0.013 -0.869,0.042 -0.495,0.047 -0.989,0.121 -1.479,0.217 -0.005,10e-4 -0.01,10e-4 -0.016,0.002 -0.067,0.014 -0.131,0.036 -0.199,0.05 -0.415,0.088 -0.828,0.188 -1.236,0.312 -0.158,0.048 -0.31,0.11 -0.466,0.163 -0.308,0.105 -0.616,0.208 -0.919,0.333 -0.208,0.086 -0.405,0.188 -0.607,0.282 -0.239,0.112 -0.48,0.218 -0.714,0.343 -0.243,0.129 -0.474,0.276 -0.708,0.418 -0.183,0.111 -0.368,0.214 -0.547,0.333 -0.281,0.188 -0.548,0.393 -0.814,0.599 -0.122,0.094 -0.248,0.179 -0.368,0.277 -0.341,0.28 -0.665,0.577 -0.977,0.884 -0.04,0.039 -0.084,0.071 -0.123,0.111 l -0.02,0.02 c -0.016,0.015 -0.03,0.03 -0.045,0.045 l -62.421,62.42 c -5.858,5.857 -5.858,15.355 0,21.213 2.929,2.929 6.768,4.394 10.606,4.393 3.838,-0.001 7.678,-1.465 10.606,-4.393 l 38.836,-38.835 c -4.299,47.301 -39.205,88.259 -88.071,97.979 -6.707,1.334 -13.454,2.03 -20.161,2.11 -14.532,0.174 -28.878,-2.539 -42.235,-7.898 -1.028,-0.412 -2.049,-0.84 -3.064,-1.284 -12.185,-5.322 -23.474,-12.883 -33.235,-22.493 -5.903,-5.814 -15.401,-5.738 -21.212,0.165 -5.813,5.903 -5.739,15.4 0.165,21.212 8.282,8.154 17.427,15.148 27.2,20.912 21.5,12.678 46.03,19.397 71.056,19.396 0,0 0,0 0,0 h 0.001 c 9.087,-0.001 18.245,-0.887 27.34,-2.696 61.89,-12.311 106.147,-63.914 112.006,-123.7 l 35.131,35.13 c 5.857,5.858 15.355,5.858 21.213,0 5.855,-5.858 5.855,-15.356 -0.003,-21.214 z"
           style="fill:#ffffff;fill-opacity:1" /></g></g></g></svg>
